<svg width="97" height="96" xmlns="http://www.w3.org/2000/svg" xmlns:xlink="http://www.w3.org/1999/xlink" xml:space="preserve" overflow="hidden"><g transform="translate(-120 -312)"><g><g><g><g><path d="M208.8 320.4C207.4 319 198.4 320.6 190.9 322.6 193.6 324.2 196.4 326.4 199.1 329.1 201.9 331.9 204.1 334.7 205.7 337.5 207.7 329.8 210.3 321.8 208.8 320.4Z" fill="#FFFFFF" fill-rule="nonzero" fill-opacity="1"/><path d="M153.1 348.9 149.7 347.6C148.3 347.1 146.8 347.4 145.7 348.4L129.8 364.3C127.2 366.9 129.6 371.4 133.2 370.6L146.5 367.6C147.6 362.6 149.4 355.9 153.1 348.9Z" fill="#FFFFFF" fill-rule="nonzero" fill-opacity="1"/><path d="M179.6 375C172.9 378.5 166.5 380.4 161.3 381.4L158.2 395.6C157.4 399.2 161.8 401.7 164.5 399L180.4 383.1C181.4 382.1 181.8 380.5 181.2 379.1L179.6 375Z" fill="#FFFFFF" fill-rule="nonzero" fill-opacity="1"/><path d="M185.5 324.4C179.6 326.8 172.9 330.9 166.4 337.4 154.5 349.3 151 363.7 150 371.9L156.2 378.1C164.4 377.1 178.9 373.7 190.8 361.8 197.3 355.3 201.4 348.7 203.8 342.8 202.5 339.5 199.9 335.6 196.2 331.8 192.6 328.3 188.8 325.7 185.5 324.4ZM190.6 346C188.3 348.3 184.5 348.3 182.1 346 179.8 343.7 179.8 339.9 182.1 337.5 184.4 335.2 188.2 335.2 190.6 337.5 192.9 339.9 192.9 343.7 190.6 346Z" fill="#FFFFFF" fill-rule="nonzero" fill-opacity="1"/><path d="M149.9 378.2C148.3 376.6 148.5 373.9 145.2 377.2 141.9 380.5 137 388 138.5 389.6 140.1 391.2 147.6 386.2 150.9 382.9 154.2 379.5 151.5 379.7 149.9 378.2Z" fill="#FFFFFF" fill-rule="nonzero" fill-opacity="1"/></g></g></g></g></g></svg>